<svg t="1720169707366" class="icon" viewBox="0 0 1024 1024" version="1.1"
    xmlns="http://www.w3.org/2000/svg" p-id="9244" width="200" height="200">
    <path d="M773.2 178.1v91c0 49.5-40.3 89.8-89.8 89.8-24.1 0-46.7-9.4-63.7-26.5-16.8-17-26.1-39.4-26.1-63.2v-90.8-0.3H433.8v91.1c0 49.5-40.3 89.8-89.8 89.8-49.2 0-89.2-40.3-89.2-89.8v-90.8-0.2C163.6 180.2 90 255 90 346.7v379.9c0 93 75.6 168.6 168.6 168.6h510.7c93 0 168.6-75.6 168.6-168.6v-380c0-91.6-73.5-166.4-164.7-168.5zM408.7 739.4c0 24.6-19.8 44.4-44.4 44.4h-39.5c-24 0-43.8-19.8-44.4-44.4v-10.7c0-24.6 19.8-44.4 44.4-44.4h39.5c24.6 0 44.4 19.8 44.4 44.4v10.7z m0-140.6c0 24.6-19.8 44.4-44.4 44.4h-39.5c-24 0-43.8-19.8-44.4-44.4v-10.7c0-24.6 19.8-44.4 44.4-44.4h39.5c24.6 0 44.4 19.8 44.4 44.4v10.7z m0-141c0 24.6-19.8 44.4-44.4 44.4h-39.5c-24 0-43.8-19.8-44.4-44.4v-10.7c0-24.6 19.8-44.4 44.4-44.4h39.5c24.6 0 44.4 19.8 44.4 44.4v10.7z m169.4 281.6c0 24.6-19.8 44.4-44.4 44.4h-39.5c-24.6 0-43.8-19.8-44.4-44.4v-10.7c0-24.6 19.8-44.4 44.4-44.4h39.5c24.6 0 44.4 19.8 44.4 44.4v10.7z m0-140.6c0 24.6-19.8 44.4-44.4 44.4h-39.5c-24.6 0-43.8-19.8-44.4-44.4v-10.7c0-24.6 19.8-44.4 44.4-44.4h39.5c24.6 0 44.4 19.8 44.4 44.4v10.7z m0-141c0 24.6-19.8 44.4-44.4 44.4h-39.5c-24.6 0-43.8-19.8-44.4-44.4v-10.7c0-24.6 19.8-44.4 44.4-44.4h39.5c24.6 0 44.4 19.8 44.4 44.4v10.7z m169.4 281.6c0 24.6-19.8 44.4-44.4 44.4h-39.5c-24.6 0-44.4-19.8-44.4-44.4v-10.7c0-24.6 19.8-44.4 44.4-44.4h39.5c24.6 0 44.4 19.8 44.4 44.4v10.7z m0-140.6c0 24.6-19.8 44.4-44.4 44.4h-39.5c-24.6 0-44.4-19.8-44.4-44.4v-10.7c0-24.6 19.8-44.4 44.4-44.4h39.5c24.6 0 44.4 19.8 44.4 44.4v10.7z m0-140.5c0 24.6-19.8 44.4-44.4 44.4h-39.5c-24.6 0-44.4-19.8-44.4-44.4v-10.7c0-24.6 19.8-44.4 44.4-44.4h39.5c24.6 0 44.4 19.8 44.4 44.4v10.7z" fill="#ff8533" p-id="9245"></path>
    <path d="M344.1 316.2c25.6 0 47-20.8 47-47v-90.8c0.5-26.2-20.8-47-46.5-47s-47 20.8-47 47v90.8c0 25.6 20.8 47 46.5 47zM683.4 316.2c25.6 0 47-20.8 47-47v-90.8c-0.5-26.2-21.4-47-47-47s-47 20.8-47 47v90.8c0 25.6 20.8 47 47 47z" fill="#ff8533" p-id="9246"></path>
</svg>