<svg t="1725533338177" class="icon" viewBox="0 0 1042 1024" version="1.1"
    xmlns="http://www.w3.org/2000/svg" p-id="4377" width="200" height="200">
    <path d="M522.971429 310.857143c-80.457143 0-146.285714 65.828571-146.285715 146.285714s65.828571 146.285714 146.285715 146.285714 146.285714-65.828571 146.285714-146.285714-64-146.285714-146.285714-146.285714z m107.885714 181.028571h-109.714286c-20.114286 0-36.571429-16.457143-36.571428-36.571428v-109.714286h73.142857v73.142857h73.142857v73.142857z" fill="#FF7C32" p-id="4378"></path>
    <path d="M925.257143 109.714286h-804.571429c-20.114286 0-36.571429 16.457143-36.571428 36.571428v621.714286c0 20.114286 16.457143 36.571429 36.571428 36.571429h804.571429c20.114286 0 36.571429-16.457143 36.571428-36.571429V146.285714c0-20.114286-14.628571-36.571429-36.571428-36.571428z m-402.285714 566.857143c-120.685714 0-219.428571-98.742857-219.428572-219.428572s98.742857-219.428571 219.428572-219.428571 219.428571 98.742857 219.428571 219.428571-96.914286 219.428571-219.428571 219.428572zM760.685714 841.142857h-475.428571v73.142857h475.428571v-73.142857z" fill="#FF7C32" p-id="4379"></path>
</svg>