<svg t="1722334301382" class="icon" viewBox="0 0 1024 1024" version="1.1"
    xmlns="http://www.w3.org/2000/svg" p-id="5251" width="200" height="200">
    <path d="M813.7 386.7v-214c0-41.4-33.5-74.9-74.9-74.9H289.2c-41.4 0-74.9 33.6-74.9 74.9v214L514 599.8l299.7-213.1zM329.6 190h368.9c12.7 0 23.1 10.3 23.1 23.1 0 12.7-10.3 23.1-23.1 23.1H329.6c-12.7 0-23.1-10.3-23.1-23.1s10.3-23.1 23.1-23.1z m-23.1 115.3c0-12.7 10.3-23.1 23.1-23.1h230.6c12.7 0 23.1 10.3 23.1 23.1 0 12.7-10.3 23.1-23.1 23.1H329.6c-12.8 0-23.1-10.4-23.1-23.1z m615 61.4L553.8 628.1l367.7 261.4c4.7-9.3 7.6-19.7 7.6-30.8V397.5c-0.1-11.1-3-21.5-7.6-30.8zM99 397.5v461.1c0 38.2 31 69.2 69.2 69.2h691.7c9.9 0 19.2-2.1 27.7-5.9l-781-555.3c-4.7 9.4-7.6 19.8-7.6 30.9z" p-id="5252" fill="#ff8533"></path>
</svg>