<svg t="1725533210283" class="icon" viewBox="0 0 1024 1024" version="1.1"
    xmlns="http://www.w3.org/2000/svg" p-id="1547" width="200" height="200">
    <path d="M924.659993 177.664376 98.656439 177.664376c-19.292392 0-34.932604 15.640212-34.932604 34.932604l0 593.295538c0 19.293415 15.640212 34.932604 34.932604 34.932604l826.003554 0c19.293415 0 34.933627-15.639189 34.933627-34.932604L959.59362 212.596979C959.592596 193.304587 943.953408 177.664376 924.659993 177.664376zM543.001573 365.504508l331.933925 0 0 64.524572L543.001573 430.02908 543.001573 365.504508zM543.001573 490.978221l331.933925 0 0 64.523549L543.001573 555.50177 543.001573 490.978221zM261.487991 291.2749c6.823406-6.820336 14.826684-12.415774 23.506367-16.615423 11.779278-5.699816 24.812105-8.81783 37.901215-8.81783 22.734794 0 45.332465 9.359158 61.406558 25.433252 16.075117 16.075117 25.433252 38.671765 25.433252 61.406558 0 22.734794-9.358135 45.325301-25.433252 61.404512-16.074094 16.074094-38.671765 25.434276-61.406558 25.434276-22.734794 0-45.326325-9.360182-61.407582-25.434276-5.338588-5.339612-9.915837-11.410887-13.678534-17.954931-7.560186-13.158694-11.754718-28.265764-11.754718-43.449581C236.054739 329.946664 245.413897 307.350017 261.487991 291.2749zM150.878824 597.293595c19.016099-70.030983 87.11508-122.138758 168.677701-123.528408 1.109264-0.019443 2.220574-0.039909 3.337002-0.039909 97.931426 0 177.321568 73.123414 177.321568 163.325809L145.575028 637.051087C145.575028 623.336738 147.422096 610.021477 150.878824 597.293595zM877.742427 758.070348 145.575028 758.070348l0-64.523549 732.167399 0L877.742427 758.070348z" fill="#FF7C32" p-id="1548"></path>
</svg>