<svg t="1720169005403" class="icon" viewBox="0 0 1024 1024" version="1.1"
    xmlns="http://www.w3.org/2000/svg" p-id="1291" width="200" height="200">
    <path d="M512.007163 65.290005c112.829741 0 204.291826 91.466178 204.291826 204.290803 0 112.819508-91.462085 204.28671-204.291826 204.28671-112.834858 0-204.306152-91.462085-204.306152-204.28671S399.172305 65.290005 512.007163 65.290005L512.007163 65.290005 512.007163 65.290005zM512.007163 65.290005" fill="#ff8333" p-id="1292"></path>
    <path d="M899.442146 896.000767l0 62.709227L124.557854 958.709995l0-62.709227 0-0.010233c0-213.963093 173.46882-387.420657 387.444193-387.420657C725.975373 508.569878 899.442146 682.027441 899.442146 896.000767L899.442146 896.000767 899.442146 896.000767 899.442146 896.000767zM899.442146 896.000767" fill="#ff8333" p-id="1293"></path>
</svg>