<svg t="1725533427303" class="icon" viewBox="0 0 1024 1024" version="1.1"
    xmlns="http://www.w3.org/2000/svg" p-id="10975" width="200" height="200">
    <path d="M546.133333 746.666667H256c-12.8 0-21.333333 8.533333-21.333333 21.333333s8.533333 21.333333 21.333333 21.333333h270.933333c-8.533333 27.733333-14.933333 55.466667-14.933333 85.333334 0 55.466667 17.066667 106.666667 49.066667 149.333333H170.666667c-36.266667 0-64-27.733333-64-64v-768C106.666667 155.733333 134.4 128 170.666667 128h177.066666c19.2 0 36.266667-12.8 40.533334-32C403.2 40.533333 452.266667 0 512 0s108.8 40.533333 123.733333 96c4.266667 19.2 21.333333 32 40.533334 32H853.333333c36.266667 0 64 27.733333 64 64v475.733333c-42.666667-29.866667-93.866667-49.066667-149.333333-49.066666-93.866667 0-177.066667 51.2-221.866667 128zM256 597.333333h426.666667c12.8 0 21.333333-8.533333 21.333333-21.333333s-8.533333-21.333333-21.333333-21.333333H256c-12.8 0-21.333333 8.533333-21.333333 21.333333s8.533333 21.333333 21.333333 21.333333z m298.666667-469.333333h-85.333334c-12.8 0-21.333333 8.533333-21.333333 21.333333s8.533333 21.333333 21.333333 21.333334h85.333334c12.8 0 21.333333-8.533333 21.333333-21.333334S567.466667 128 554.666667 128z m234.666666 256c0-12.8-8.533333-21.333333-21.333333-21.333333H256c-12.8 0-21.333333 8.533333-21.333333 21.333333s8.533333 21.333333 21.333333 21.333333h512c12.8 0 21.333333-8.533333 21.333333-21.333333z m-119.04 466.005333c12.8 0 21.333333 8.533333 21.333334 21.333334s-8.533333 21.333333-21.333334 21.333333-21.333333-8.533333-21.333333-21.333333 8.533333-21.333333 21.333333-21.333334z m85.333334 0c12.8 0 21.333333 8.533333 21.333333 21.333334s-8.533333 21.333333-21.333333 21.333333-21.333333-8.533333-21.333334-21.333333 8.533333-21.333333 21.333334-21.333334z m85.333333 0c12.8 0 21.333333 8.533333 21.333333 21.333334s-8.533333 21.333333-21.333333 21.333333-21.333333-8.533333-21.333333-21.333333 8.533333-21.333333 21.333333-21.333334z" fill="#FF7C32" p-id="10976"></path>
</svg>