<svg class="icon" viewBox="0 0 1024 1024" xmlns="http://www.w3.org/2000/svg" width="200" height="200">
  <path d="M918.9 399.7c-4.8-5.2-11.3-8.5-18.4-9.1l-261.7-23.4-101.2-251.1c-5.8-14.5-22.3-21.6-36.9-15.7-7.2 2.9-12.9 8.6-15.7 15.7L383.9 367.2l-261.8 23.4c-15.6 1.4-27.1 15.2-25.6 30.8.6 7 3.9 13.6 9.1 18.3L305.5 622 246 890.9c-3.4 15.3 6.3 30.4 21.6 33.8 7.3 1.6 15 .3 21.3-3.7L481 798.9c18.6-11.8 42.3-11.8 60.8 0L734 921c13.2 8.4 30.7 4.5 39.1-8.8 4-6.3 5.4-14 3.7-21.3L717.2 622l199.9-182.3c11.5-10.5 12.3-28.5 1.8-40zM389.7 617.1l121.6-210.6 121.6 210.6H389.7z" fill="#ff8533"/>
</svg>