<svg t="1722825622429" class="icon" viewBox="0 0 1024 1024" version="1.1"
    xmlns="http://www.w3.org/2000/svg" p-id="2571" width="200" height="200">
    <path d="M648 496a144 144 0 0 0-272 0H144v-112a112 112 0 0 1 112-112h80v-16a112 112 0 0 1 112-112h128a112 112 0 0 1 112 112 112 112 0 0 0-112-112h-128a112 112 0 0 0-112 112v16h432a112 112 0 0 1 112 112v112z" fill="#ff8533" p-id="2572"></path>
    <path d="M768 288a96 96 0 0 1 96 96v96H659.2a161.6 161.6 0 0 0-294.4 0H160v-96a96 96 0 0 1 96-96h512M576 128h-128a128 128 0 0 0-128 128h-64a128 128 0 0 0-128 128v128h260.8a126.4 126.4 0 0 1 246.4 0H896v-128a128 128 0 0 0-128-128h-64a128 128 0 0 0-128-128z m-224 128a96 96 0 0 1 96-96h128a96 96 0 0 1 96 96zM256 880a112 112 0 0 1-112-112V592h232a144 144 0 0 0 272 0H880v176a112 112 0 0 1-112 112z" fill="#ff8533" p-id="2573"></path>
    <path d="M864 608v160a96 96 0 0 1-96 96H256a96 96 0 0 1-96-96V608h204.8a161.6 161.6 0 0 0 294.4 0H864m32-32H635.2a126.4 126.4 0 0 1-246.4 0H128v192a128 128 0 0 0 128 128h512a128 128 0 0 0 128-128V576z" fill="#ff8533" p-id="2574"></path>
    <path d="M512 544m-64 0a64 64 0 1 0 128 0 64 64 0 1 0-128 0Z" fill="#ff8533" p-id="2575"></path>
</svg>